# xmcd
#
# Track frame offsets:
# 150
# 18328
# 38548
# 63798
# 84795
# 103905
# 122403
# 145105
# 165643
# 186480
# 208960
# 229743
# 250855
# 271558
# 291700
#
# Disc length: 4171 seconds
#
#
# Revision: 0
# Processed by: cddbd v1.5.1PL2 Copyright (c) Steve Scherf et al.
# Submitted via: CDLP Version 5
#
DISCID=cd10490f
DTITLE=高橋真梨子 - ＴＨＥ　ＢＯＸ Disc 8
DYEAR=1900
DGENRE=Misc
TTITLE0=Ｓｗｅｅｔ　Ｐａｇｅから相棒へ
TTITLE1=不思議な鳥
TTITLE2=素足のボレロ
TTITLE3=泣かせないでよ
TTITLE4=涙の街角
TTITLE5=ファジーレストラン
TTITLE6=彼女
TTITLE7=ｃｒａｚｙ　ｆｏｒ　ｙｏｕ−愛しすぎて−
TTITLE8=たそがれのＡｎｎｉｖｅｒｓａｒｙ〜リヨンの春〜
TTITLE9=愚かなマドンナ
TTITLE10=車窓
TTITLE11=私を知らない人
TTITLE12=Ｓｏ　ｉｎ　Ｌｏｖｅ
TTITLE13=Ｌｏｎｅｌｙ　Ｓｕｂｗａｙ
TTITLE14=ごめんね…
EXTD=
EXTT0=
EXTT1=
EXTT2=
EXTT3=
EXTT4=
EXTT5=
EXTT6=
EXTT7=
EXTT8=
EXTT9=
EXTT10=
EXTT11=
EXTT12=
EXTT13=
EXTT14=
PLAYORDER=
